<?xml version="1.0" encoding="UTF-8" standalone="no"?>
<svg
   viewBox="0 0 600 800"
   width="100%"
   height="100%"
   version="1.1"
   id="svg36"
   sodipodi:docname="geinou-secret.svg"
   inkscape:version="1.4.4 (dcaf3e7, 2026-05-05)"
   xmlns:inkscape="http://www.inkscape.org/namespaces/inkscape"
   xmlns:sodipodi="http://sodipodi.sourceforge.net/DTD/sodipodi-0.dtd"
   xmlns="http://www.w3.org/2000/svg"
   xmlns:svg="http://www.w3.org/2000/svg">
  <sodipodi:namedview
     id="namedview36"
     pagecolor="#ffffff"
     bordercolor="#000000"
     borderopacity="0.25"
     inkscape:showpageshadow="2"
     inkscape:pageopacity="0.0"
     inkscape:pagecheckerboard="0"
     inkscape:deskcolor="#d1d1d1"
     inkscape:zoom="0.71329397"
     inkscape:cx="74.303166"
     inkscape:cy="519.42119"
     inkscape:window-width="1920"
     inkscape:window-height="1009"
     inkscape:window-x="1912"
     inkscape:window-y="-8"
     inkscape:window-maximized="1"
     inkscape:current-layer="svg36" />
  <defs
     id="defs15">
    <style
       id="style-font">
      @import url('https://fonts.googleapis.com/css2?family=Noto+Sans+JP:wght@700;900&amp;display=swap');
      text {
        font-family: "Noto Sans JP", "Hiragino Kaku Gothic ProN", "Yu Gothic", "Meiryo", system-ui, -apple-system, sans-serif;
      }
    </style>
    <!-- 背景グラデーション -->
    <linearGradient
       id="bgGrad"
       x1="0%"
       y1="0%"
       x2="100%"
       y2="100%">
      <stop
         offset="0%"
         stop-color="#141a29"
         id="stop1" />
      <stop
         offset="40%"
         stop-color="#1c253b"
         id="stop2" />
      <stop
         offset="75%"
         stop-color="#2a241e"
         id="stop3" />
      <stop
         offset="100%"
         stop-color="#3d2c18"
         id="stop4" />
    </linearGradient>
    <!-- ゴールドグラデーション -->
    <linearGradient
       id="goldGrad"
       x1="0%"
       y1="0%"
       x2="100%"
       y2="100%">
      <stop
         offset="0%"
         stop-color="#f6d365"
         id="stop5" />
      <stop
         offset="50%"
         stop-color="#fda085"
         id="stop6" />
      <stop
         offset="100%"
         stop-color="#f6d365"
         id="stop7" />
    </linearGradient>
    <!-- ゴールドメタリック -->
    <linearGradient
       id="goldMetallic"
       x1="0%"
       y1="0%"
       x2="100%"
       y2="0%">
      <stop
         offset="0%"
         stop-color="#ffe29f"
         id="stop8" />
      <stop
         offset="25%"
         stop-color="#ffa99f"
         id="stop9" />
      <stop
         offset="50%"
         stop-color="#ffd166"
         id="stop10" />
      <stop
         offset="75%"
         stop-color="#ffe29f"
         id="stop11" />
      <stop
         offset="100%"
         stop-color="#ffb703"
         id="stop12" />
    </linearGradient>
    <!-- グロー効果 -->
    <filter
       id="glow"
       x="-0.17845291"
       y="-0.17843265"
       width="1.3571114"
       height="1.3570387">
      <feGaussianBlur
         stdDeviation="12"
         result="blur"
         id="feGaussianBlur12" />
      <feComposite
         in="SourceGraphic"
         in2="blur"
         operator="over"
         id="feComposite12" />
    </filter>
    <radialGradient
       id="spotlight"
       cx="50%"
       cy="40%"
       r="50%">
      <stop
         offset="0%"
         stop-color="#f6d365"
         stop-opacity="0.25"
         id="stop13" />
      <stop
         offset="60%"
         stop-color="#f6d365"
         stop-opacity="0.05"
         id="stop14" />
      <stop
         offset="100%"
         stop-color="#141a29"
         stop-opacity="0"
         id="stop15" />
    </radialGradient>
  </defs>
  <!-- 背景 -->
  <rect
     width="600"
     height="800"
     fill="url(#bgGrad)"
     id="rect15" />
  <!-- スポットライト -->
  <circle
     cx="300"
     cy="340"
     r="300"
     fill="url(#spotlight)"
     id="circle15" />
  <!-- 背景幾何学装飾グリッド/円弧 -->
  <g
     opacity="0.15"
     stroke="#ffe29f"
     stroke-width="1"
     fill="none"
     id="g19">
    <circle
       cx="300"
       cy="340"
       r="140"
       stroke-dasharray="4,6"
       id="circle16" />
    <circle
       cx="300"
       cy="340"
       r="180"
       id="circle17" />
    <circle
       cx="300"
       cy="340"
       r="220"
       stroke-dasharray="8,8"
       id="circle18" />
    <line
       x1="100"
       y1="340"
       x2="500"
       y2="340"
       stroke-dasharray="3,5"
       id="line18" />
    <line
       x1="300"
       y1="140"
       x2="300"
       y2="540"
       stroke-dasharray="3,5"
       id="line19" />
  </g>
  <!-- キラキラ星飾り -->
  <g
     fill="#ffe29f"
     opacity="0.6"
     id="g22">
    <!-- 星1 -->
    <path
       d="M160,200 L163,212 L175,215 L163,218 L160,230 L157,218 L145,215 L157,212 Z"
       id="path19" />
    <!-- 星2 -->
    <path
       d="M440,220 L442,228 L450,230 L442,232 L440,240 L438,232 L430,230 L438,228 Z"
       id="path20" />
    <!-- 星3 -->
    <path
       d="M180,480 L182,488 L190,490 L182,492 L180,500 L178,492 L170,490 L178,488 Z"
       id="path21" />
    <!-- 星4 -->
    <path
       d="M430,470 L433,479 L442,482 L433,485 L430,494 L427,485 L418,482 L427,479 Z"
       id="path22" />
  </g>
  <!-- 上部タグバッジ -->
  <g
     transform="translate(300, 110)"
     id="g23">
    <rect
       x="-100"
       y="-18"
       width="200"
       height="36"
       rx="18"
       fill="#141a29"
       stroke="url(#goldGrad)"
       stroke-width="1.5"
       id="rect22" />
    <text
       text-anchor="middle"
       y="6"
       font-family="Helvetica Neue, Arial, Noto Sans JP, sans-serif"
       font-weight="700"
       font-size="13"
       letter-spacing="3"
       fill="#ffe29f"
       style="font-family: 'Helvetica Neue', Arial, 'Noto Sans JP', sans-serif; font-weight: 700;"
       id="text22">
      SPECIAL STAGE
    </text>
  </g>
  <!-- 中央マイクアイコン -->
  <g
     transform="translate(300, 310)"
     filter="url(#glow)"
     id="g27">
    <!-- 光彩円 -->
    <circle
       cx="0"
       cy="0"
       r="72"
       fill="#ffd166"
       fill-opacity="0.12"
       stroke="url(#goldMetallic)"
       stroke-width="2"
       id="circle23" />
    <circle
       cx="0"
       cy="0"
       r="82"
       fill="none"
       stroke="#ffe29f"
       stroke-opacity="0.3"
       stroke-width="1"
       stroke-dasharray="4,6"
       id="circle24" />
    <!-- マイクSVG本体 -->
    <g
       transform="translate(-32, -32) scale(2.66)"
       fill="none"
       stroke="url(#goldMetallic)"
       stroke-width="1.8"
       stroke-linecap="round"
       stroke-linejoin="round"
       id="g26">
      <path
         d="M12 2a3 3 0 0 0-3 3v7a3 3 0 0 0 6 0V5a3 3 0 0 0-3-3z"
         fill="url(#goldMetallic)"
         fill-opacity="0.25"
         id="path24" />
      <path
         d="M19 10v2a7 7 0 0 1-14 0v-2"
         id="path25" />
      <line
         x1="12"
         y1="19"
         x2="12"
         y2="22"
         id="line25" />
      <line
         x1="8"
         y1="22"
         x2="16"
         y2="22"
         id="line26" />
    </g>
  </g>
  <!-- サウンドウェーブ装飾 -->
  <g
     transform="translate(300, 430)"
     stroke="url(#goldGrad)"
     stroke-width="2.5"
     stroke-linecap="round"
     opacity="0.8"
     id="g33">
    <line
       x1="-90"
       y1="-8"
       x2="-90"
       y2="8"
       id="line27" />
    <line
       x1="-60"
       y1="-16"
       x2="-60"
       y2="16"
       id="line28" />
    <line
       x1="-30"
       y1="-24"
       x2="-30"
       y2="24"
       id="line29" />
    <line
       x1="0"
       y1="-32"
       x2="0"
       y2="32"
       id="line30" />
    <line
       x1="30"
       y1="-24"
       x2="30"
       y2="24"
       id="line31" />
    <line
       x1="60"
       y1="-16"
       x2="60"
       y2="16"
       id="line32" />
    <line
       x1="90"
       y1="-8"
       x2="90"
       y2="8"
       id="line33" />
  </g>
  <!-- タイトル部テキスト -->
  <text
     x="300"
     y="520"
     text-anchor="middle"
     font-family="Helvetica Neue, Arial, Noto Sans JP, sans-serif"
     font-weight="900"
     font-size="44"
     letter-spacing="6"
     fill="url(#goldMetallic)"
     style="font-family: 'Helvetica Neue', Arial, 'Noto Sans JP', sans-serif; font-weight: 900;"
     id="text33">
    SECRET GUEST
  </text>
  <text
     x="300"
     y="565"
     text-anchor="middle"
     font-family="Helvetica Neue, Arial, Noto Sans JP, sans-serif"
     font-weight="700"
     font-size="20"
     letter-spacing="8"
     fill="#ffffff"
     opacity="0.9"
     style="font-family: 'Helvetica Neue', Arial, 'Noto Sans JP', sans-serif; font-weight: 700;"
     id="text34">
    COMING SOON
  </text>
  <!-- 区切り線 -->
  <line
     x1="200"
     y1="605"
     x2="400"
     y2="605"
     stroke="url(#goldGrad)"
     stroke-width="1.5"
     stroke-linecap="round"
     opacity="0.7"
     id="line34" />
  <!-- サブテキスト -->
    <path
     d="M163.81 634.71L163.81 634.08L180.13 634.08L180.13 634.71L163.81 634.71M162.74 643.64L162.74 643.03L181.28 643.03L181.28 643.64L162.74 643.64M165.47 636.25L166.01 636.06Q166.50 636.90 166.96 637.86Q167.42 638.83 167.79 639.73Q168.16 640.63 168.32 641.28L167.76 641.54Q167.57 640.84 167.21 639.94Q166.85 639.04 166.40 638.06Q165.95 637.09 165.47 636.25M177.88 635.93L178.53 636.16Q178.13 637.06 177.64 638.07Q177.14 639.08 176.64 640.04Q176.13 640.99 175.65 641.71L175.15 641.47Q175.61 640.76 176.12 639.78Q176.64 638.81 177.10 637.78Q177.56 636.75 177.88 635.93M171.62 651.47L171.62 634.25L172.25 634.25L172.25 651.47L171.62 651.47M192.75 641.35L192.75 634.21L193.36 634.42L193.36 641.35L192.75 641.35M193.06 638.03L193.06 637.42L197.05 637.42L197.05 638.03L193.06 638.03M198.92 638.03L198.92 637.42L203.46 637.42L203.46 638.03L198.92 638.03M194.07 644.23L194.07 643.62L204.19 643.62L204.19 644.23L194.07 644.23M204.09 643.76L204.09 643.62L204.70 643.62Q204.70 643.62 204.70 643.69Q204.70 643.76 204.70 643.87Q204.70 643.97 204.67 644.04Q204.53 646.43 204.38 647.88Q204.23 649.33 204.04 650.06Q203.86 650.80 203.56 651.09Q203.35 651.30 203.11 651.38Q202.87 651.45 202.45 651.47Q202.09 651.47 201.38 651.45Q200.66 651.43 199.89 651.39Q199.87 651.26 199.82 651.09Q199.78 650.92 199.70 650.78Q200.56 650.86 201.30 650.88Q202.05 650.90 202.30 650.90Q202.60 650.90 202.77 650.87Q202.95 650.84 203.06 650.69Q203.29 650.46 203.46 649.74Q203.63 649.01 203.78 647.56Q203.94 646.12 204.09 643.76M195.60 641.14L196.19 641.33Q195.31 643.03 193.99 644.55Q192.66 646.07 191.28 647.12Q191.23 647.06 191.14 646.98Q191.05 646.89 190.95 646.81Q190.86 646.72 190.77 646.66Q192.20 645.67 193.48 644.21Q194.76 642.75 195.60 641.14M192.75 641.60L192.75 640.99L203.16 640.99L203.16 634.61L198.84 634.61L198.84 633.98L203.77 633.98L203.77 641.60L192.75 641.60M196.91 632.53L197.37 632.93Q196.51 633.58 195.38 634.17Q194.26 634.75 193.31 635.17L192.89 634.75Q193.52 634.46 194.26 634.07Q194.99 633.68 195.70 633.27Q196.40 632.86 196.91 632.53M193.25 646.37L193.80 646.51Q193.59 647.73 193.11 648.93Q192.64 650.13 191.72 650.84L191.23 650.46Q192.10 649.81 192.57 648.68Q193.04 647.54 193.25 646.37M195.25 646.53L195.85 646.45Q196.09 647.35 196.24 648.41Q196.40 649.48 196.40 650.21L195.79 650.32Q195.79 649.56 195.64 648.50Q195.50 647.44 195.25 646.53M197.51 646.18L198.06 645.97Q198.61 646.70 199.08 647.61Q199.55 648.51 199.78 649.18L199.17 649.41Q198.96 648.74 198.49 647.84Q198.02 646.93 197.51 646.18M199.87 645.61L200.35 645.27Q201.04 645.90 201.71 646.66Q202.39 647.42 202.72 647.98L202.20 648.34Q201.86 647.75 201.20 646.98Q200.54 646.20 199.87 645.61M187.01 633.24L187.39 632.82Q188.08 633.14 188.80 633.55Q189.51 633.96 190.13 634.40Q190.75 634.84 191.13 635.22L190.77 635.74Q190.37 635.34 189.74 634.89Q189.11 634.44 188.41 634Q187.71 633.56 187.01 633.24M186.01 638.93L186.36 638.47Q187.06 638.74 187.79 639.13Q188.53 639.52 189.17 639.92Q189.81 640.32 190.21 640.68L189.85 641.20Q189.43 640.84 188.79 640.42Q188.15 640 187.42 639.62Q186.70 639.23 186.01 638.93M187.16 651.15L186.64 650.74Q187.18 649.89 187.83 648.73Q188.48 647.56 189.16 646.28Q189.83 645 190.37 643.83L190.84 644.20Q190.33 645.32 189.69 646.58Q189.05 647.84 188.39 649.03Q187.73 650.23 187.16 651.15M214.25 632.55L214.97 632.67Q214.17 634.10 212.86 635.73Q211.54 637.36 209.67 638.68Q209.61 638.60 209.53 638.52Q209.44 638.45 209.35 638.38Q209.25 638.30 209.17 638.26Q210.37 637.42 211.35 636.43Q212.34 635.45 213.08 634.44Q213.81 633.43 214.25 632.55M213.33 634.65L213.69 634.02L218.24 634.02L218.24 634.65L213.33 634.65M218.09 634.19L218.09 634.02L218.22 634.02L218.35 633.98L218.72 634.19Q217.99 636.62 216.56 638.51Q215.13 640.40 213.37 641.73Q211.61 643.05 209.82 643.78Q209.76 643.66 209.64 643.50Q209.53 643.34 209.42 643.26Q210.72 642.78 212.04 641.94Q213.35 641.10 214.54 639.94Q215.72 638.79 216.65 637.34Q217.57 635.89 218.09 634.19M212.40 635.72L212.80 635.32Q213.52 635.66 214.28 636.08Q215.05 636.50 215.73 636.92Q216.41 637.34 216.86 637.69L216.46 638.16Q216.02 637.82 215.33 637.38Q214.65 636.94 213.88 636.50Q213.12 636.06 212.40 635.72M222.76 646.79L223.24 646.45Q224.08 647.06 224.96 647.81Q225.84 648.55 226.60 649.29Q227.36 650.02 227.82 650.63L227.36 651.03Q226.89 650.44 226.13 649.70Q225.36 648.95 224.49 648.18Q223.62 647.42 222.76 646.79M210.53 637.72L210.98 637.32Q211.67 637.72 212.42 638.22Q213.18 638.72 213.85 639.21Q214.52 639.69 214.97 640.09L214.52 640.55Q214.08 640.15 213.41 639.66Q212.74 639.16 211.99 638.65Q211.25 638.13 210.53 637.72M221.54 634.65L221.54 634.02L227.29 634.02L227.29 634.65L221.54 634.65M215.26 641.41L215.26 640.80L223.62 640.80L223.62 641.41L215.26 641.41M211.08 645L211.08 644.37L227.40 644.37L227.40 645L211.08 645M227.10 634.19L227.10 634.02L227.25 634.02L227.38 633.98L227.82 634.23Q227.33 635.24 226.64 636.25Q225.95 637.25 225.14 638.13Q224.33 639.02 223.49 639.69Q223.41 639.58 223.27 639.47Q223.13 639.35 223.03 639.29Q223.85 638.66 224.64 637.80Q225.42 636.94 226.06 635.99Q226.70 635.05 227.10 634.19M219.40 633.05L219.98 632.88Q220.70 635.30 221.95 637.26Q223.20 639.23 224.94 640.63Q226.68 642.04 228.87 642.80Q228.81 642.86 228.72 642.94Q228.64 643.03 228.56 643.12Q228.49 643.22 228.43 643.32Q226.22 642.48 224.46 641.03Q222.69 639.58 221.42 637.57Q220.15 635.55 219.40 633.05M218.70 650.55L218.70 644.54L219.33 644.54L219.33 650.52Q219.33 650.92 219.21 651.12Q219.08 651.32 218.70 651.41Q218.33 651.49 217.55 651.51Q216.77 651.53 215.47 651.53Q215.45 651.41 215.38 651.24Q215.30 651.07 215.22 650.92Q216.02 650.95 216.64 650.96Q217.25 650.97 217.67 650.96Q218.09 650.95 218.28 650.92Q218.56 650.90 218.63 650.83Q218.70 650.76 218.70 650.55M214.27 646.39L214.86 646.58Q214.08 647.82 212.90 648.92Q211.71 650.02 210.53 650.80Q210.49 650.74 210.40 650.66Q210.30 650.59 210.20 650.50Q210.09 650.42 210.01 650.38Q211.23 649.64 212.38 648.60Q213.54 647.56 214.27 646.39M249.01 650L240.08 650L240.08 649.52Q242.79 647.19 244.41 645.30Q246.03 643.41 246.74 641.80Q247.45 640.19 247.45 638.76Q247.45 637.78 247.11 636.96Q246.76 636.14 246.03 635.66Q245.29 635.17 244.12 635.17Q243.09 635.17 242.17 635.72Q241.26 636.27 240.57 637.13L240.04 636.64Q240.84 635.74 241.84 635.11Q242.84 634.48 244.18 634.48Q245.48 634.48 246.38 635.02Q247.29 635.55 247.77 636.51Q248.25 637.46 248.25 638.76Q248.25 640.42 247.44 642.10Q246.64 643.78 245.09 645.58Q243.55 647.38 241.34 649.41Q241.97 649.37 242.60 649.34Q243.23 649.31 243.84 649.31L249.01 649.31L249.01 650M258.04 650.27Q256.70 650.27 255.72 649.41Q254.74 648.55 254.23 646.79Q253.71 645.02 253.71 642.34Q253.71 639.67 254.23 637.94Q254.74 636.20 255.72 635.34Q256.70 634.48 258.04 634.48Q259.38 634.48 260.34 635.34Q261.30 636.20 261.82 637.94Q262.35 639.67 262.35 642.34Q262.35 645.02 261.82 646.79Q261.30 648.55 260.34 649.41Q259.38 650.27 258.04 650.27M258.04 649.58Q259.11 649.58 259.91 648.74Q260.71 647.90 261.14 646.28Q261.57 644.67 261.57 642.34Q261.57 640.02 261.14 638.42Q260.71 636.81 259.91 635.98Q259.11 635.15 258.04 635.15Q256.97 635.15 256.17 635.98Q255.37 636.81 254.93 638.42Q254.49 640.02 254.49 642.34Q254.49 644.67 254.93 646.28Q255.37 647.90 256.17 648.74Q256.97 649.58 258.04 649.58M275.89 650L266.97 650L266.97 649.52Q269.68 647.19 271.29 645.30Q272.91 643.41 273.62 641.80Q274.34 640.19 274.34 638.76Q274.34 637.78 273.99 636.96Q273.64 636.14 272.91 635.66Q272.17 635.17 271 635.17Q269.97 635.17 269.06 635.72Q268.14 636.27 267.45 637.13L266.92 636.64Q267.72 635.74 268.72 635.11Q269.72 634.48 271.06 634.48Q272.36 634.48 273.27 635.02Q274.17 635.55 274.65 636.51Q275.13 637.46 275.13 638.76Q275.13 640.42 274.33 642.10Q273.52 643.78 271.97 645.58Q270.43 647.38 268.23 649.41Q268.86 649.37 269.49 649.34Q270.12 649.31 270.73 649.31L275.89 649.31L275.89 650M285.47 650.27Q284.35 650.27 283.48 649.78Q282.61 649.29 282 648.33Q281.39 647.38 281.07 646.01Q280.74 644.64 280.74 642.88Q280.74 640.53 281.17 638.91Q281.60 637.29 282.36 636.32Q283.12 635.34 284.08 634.91Q285.05 634.48 286.10 634.48Q287.08 634.48 287.81 634.86Q288.53 635.24 289.10 635.87L288.60 636.39Q288.11 635.78 287.46 635.48Q286.81 635.17 286.08 635.17Q284.86 635.17 283.82 635.90Q282.78 636.62 282.15 638.31Q281.52 640 281.52 642.88Q281.52 644.81 281.94 646.33Q282.36 647.84 283.24 648.71Q284.12 649.58 285.51 649.58Q286.41 649.58 287.11 649.02Q287.80 648.47 288.21 647.53Q288.62 646.60 288.62 645.46Q288.62 644.29 288.28 643.35Q287.95 642.42 287.21 641.87Q286.48 641.33 285.28 641.33Q284.44 641.33 283.41 641.89Q282.38 642.46 281.41 643.80L281.41 642.86Q281.96 642.19 282.58 641.69Q283.20 641.20 283.90 640.94Q284.61 640.68 285.32 640.68Q286.62 640.68 287.54 641.22Q288.45 641.77 288.93 642.83Q289.42 643.89 289.42 645.46Q289.42 646.85 288.87 647.93Q288.32 649.01 287.43 649.64Q286.54 650.27 285.47 650.27M303.42 639.67L303.42 639.04L317.70 639.04L317.70 639.67L303.42 639.67M301.20 643.87L301.20 643.24L319.83 643.24L319.83 643.87L301.20 643.87M301.89 651.09L301.77 650.40Q303.15 650.34 304.99 650.24Q306.83 650.15 308.93 650.03Q311.03 649.92 313.28 649.78Q315.54 649.64 317.79 649.50L317.77 650.08Q314.89 650.27 311.97 650.46Q309.05 650.65 306.46 650.81Q303.87 650.97 301.89 651.09M313.21 645.63L313.74 645.30Q314.83 646.18 315.91 647.26Q316.99 648.34 317.89 649.40Q318.80 650.46 319.32 651.34L318.78 651.72Q318.27 650.86 317.37 649.78Q316.47 648.70 315.38 647.61Q314.30 646.51 313.21 645.63M307.54 643.49L308.17 643.74Q307.73 644.83 307.16 646.10Q306.60 647.38 306 648.57Q305.40 649.77 304.85 650.67L304.33 650.44Q304.87 649.54 305.47 648.31Q306.07 647.08 306.62 645.80Q307.16 644.52 307.54 643.49M301.37 635.55L301.37 634.92L319.62 634.92L319.62 635.55L301.37 635.55M306.47 637.74L306.47 632.55L307.08 632.55L307.08 637.74L306.47 637.74M313.71 637.74L313.71 632.55L314.32 632.55L314.32 637.74L313.71 637.74M328.42 632.63L329.05 632.84Q328.67 633.62 328.23 634.50Q327.79 635.38 327.31 636.21Q326.84 637.04 326.40 637.69L325.87 637.48Q326.32 636.83 326.79 635.97Q327.26 635.11 327.69 634.22Q328.12 633.33 328.42 632.63M324.61 637.92L324.53 637.25Q325.60 637.21 327 637.16Q328.39 637.11 330 637.03Q331.61 636.96 333.27 636.90L333.25 637.50Q331.67 637.59 330.10 637.66Q328.52 637.74 327.12 637.80Q325.73 637.86 324.61 637.92M325.83 651.45L325.83 639.94L332.47 639.94L332.47 640.55L326.44 640.55L326.44 651.45L325.83 651.45M332.24 650.40L332.24 639.94L332.85 639.94L332.85 650.38Q332.85 650.78 332.73 650.99Q332.62 651.20 332.30 651.30Q331.96 651.39 331.30 651.40Q330.64 651.41 329.61 651.41Q329.59 651.28 329.52 651.09Q329.44 650.90 329.36 650.76Q330.28 650.78 330.96 650.78Q331.63 650.78 331.88 650.76Q332.11 650.76 332.17 650.68Q332.24 650.61 332.24 650.40M326.17 643.66L326.17 643.05L332.47 643.05L332.47 643.66L326.17 643.66M326.17 646.89L326.17 646.26L332.47 646.26L332.47 646.89L326.17 646.89M335.16 640.15L335.16 632.55L335.77 632.55L335.77 640.15Q335.77 640.61 336.02 640.77Q336.27 640.93 337.11 640.93Q337.30 640.93 337.89 640.93Q338.47 640.93 339.20 640.93Q339.92 640.93 340.56 640.93Q341.20 640.93 341.48 640.93Q341.96 640.93 342.20 640.73Q342.44 640.53 342.54 639.95Q342.63 639.37 342.67 638.22Q342.76 638.28 342.85 638.35Q342.95 638.41 343.06 638.44Q343.18 638.47 343.28 638.51Q343.24 639.71 343.09 640.37Q342.95 641.03 342.58 641.28Q342.21 641.54 341.50 641.54Q341.39 641.54 340.95 641.54Q340.51 641.54 339.91 641.54Q339.31 641.54 338.73 641.54Q338.14 641.54 337.71 641.54Q337.28 641.54 337.17 641.54Q336.40 641.54 335.95 641.43Q335.51 641.33 335.34 641.02Q335.16 640.72 335.16 640.15M341.73 634.40L342.23 634.90Q341.37 635.28 340.27 635.68Q339.17 636.08 337.98 636.44Q336.79 636.81 335.66 637.15Q335.64 637.04 335.58 636.91Q335.51 636.77 335.43 636.66Q336.52 636.33 337.70 635.93Q338.87 635.53 339.93 635.13Q340.99 634.73 341.73 634.40M335.16 649.85L335.16 642.27L335.77 642.27L335.77 649.85Q335.77 650.32 336.03 650.48Q336.29 650.65 337.19 650.65Q337.40 650.65 338 650.65Q338.60 650.65 339.36 650.65Q340.11 650.65 340.76 650.65Q341.41 650.65 341.71 650.65Q342.23 650.65 342.50 650.44Q342.76 650.23 342.85 649.58Q342.95 648.93 342.99 647.63Q343.14 647.71 343.30 647.78Q343.47 647.86 343.62 647.90Q343.56 649.24 343.41 649.97Q343.26 650.69 342.87 650.98Q342.49 651.26 341.73 651.26Q341.60 651.26 341.15 651.26Q340.70 651.26 340.09 651.26Q339.48 651.26 338.86 651.26Q338.24 651.26 337.79 651.26Q337.34 651.26 337.24 651.26Q336.44 651.26 335.98 651.15Q335.51 651.05 335.34 650.75Q335.16 650.44 335.16 649.85M342.07 643.68L342.51 644.18Q341.71 644.69 340.56 645.13Q339.42 645.57 338.15 645.95Q336.88 646.33 335.70 646.64Q335.68 646.53 335.61 646.39Q335.53 646.24 335.47 646.14Q336.63 645.82 337.89 645.42Q339.15 645.02 340.25 644.58Q341.35 644.14 342.07 643.68M330.81 634.31L331.27 634.08Q331.88 634.77 332.46 635.59Q333.04 636.41 333.52 637.20Q334 637.99 334.27 638.60L333.81 638.89Q333.56 638.26 333.08 637.46Q332.59 636.66 332.01 635.84Q331.42 635.01 330.81 634.31M362.67 635.78L363.09 636.14Q363.02 636.22 362.93 636.39Q362.84 636.56 362.79 636.66Q362.39 637.74 361.74 639.02Q361.09 640.30 360.29 641.51Q359.50 642.71 358.66 643.62Q357.50 644.88 356.16 646.06Q354.81 647.25 353.31 648.27Q351.81 649.29 350.11 650.04L349.61 649.50Q351.31 648.80 352.84 647.81Q354.37 646.81 355.75 645.58Q357.12 644.35 358.30 643.05Q359.03 642.21 359.81 641.06Q360.59 639.92 361.22 638.70Q361.85 637.48 362.14 636.50Q362 636.50 361.29 636.50Q360.59 636.50 359.59 636.50Q358.59 636.50 357.49 636.50Q356.39 636.50 355.39 636.50Q354.39 636.50 353.72 636.50Q353.05 636.50 352.90 636.50Q352.59 636.50 352.18 636.52Q351.77 636.54 351.45 636.55Q351.14 636.56 351.14 636.56L351.14 635.76Q351.14 635.76 351.44 635.78Q351.75 635.80 352.16 635.84Q352.57 635.87 352.90 635.87Q353.05 635.87 353.69 635.87Q354.33 635.87 355.28 635.87Q356.22 635.87 357.26 635.87Q358.30 635.87 359.26 635.87Q360.21 635.87 360.87 635.87Q361.53 635.87 361.70 635.87Q362.04 635.87 362.27 635.85Q362.50 635.83 362.67 635.78M358.51 643.57L358.93 643.15Q359.83 643.91 360.74 644.77Q361.64 645.63 362.50 646.52Q363.36 647.42 364.11 648.24Q364.85 649.05 365.42 649.75L364.89 650.21Q364.16 649.29 363.10 648.11Q362.04 646.93 360.85 645.74Q359.66 644.54 358.51 643.57M375.29 635.80L375.29 635.03Q375.69 635.05 376.02 635.08Q376.36 635.11 376.84 635.11Q377.18 635.11 378.04 635.11Q378.90 635.11 380.01 635.11Q381.13 635.11 382.24 635.11Q383.35 635.11 384.21 635.11Q385.08 635.11 385.41 635.11Q385.77 635.11 386.23 635.09Q386.69 635.07 387.07 635.03L387.07 635.80Q386.67 635.76 386.22 635.75Q385.77 635.74 385.41 635.74Q385.08 635.74 384.23 635.74Q383.37 635.74 382.26 635.74Q381.15 635.74 380.04 635.74Q378.92 635.74 378.06 635.74Q377.20 635.74 376.89 635.74Q376.38 635.74 376 635.75Q375.63 635.76 375.29 635.80M372.73 640.95L372.73 640.21Q373.13 640.24 373.50 640.26Q373.88 640.28 374.37 640.28Q374.60 640.28 375.41 640.28Q376.21 640.28 377.39 640.28Q378.57 640.28 379.92 640.28Q381.27 640.28 382.63 640.28Q383.98 640.28 385.15 640.28Q386.31 640.28 387.10 640.28Q387.89 640.28 388.10 640.28Q388.44 640.28 388.78 640.26Q389.13 640.24 389.46 640.21L389.46 640.95Q389.17 640.93 388.80 640.92Q388.44 640.91 388.10 640.91Q387.89 640.91 387.10 640.91Q386.31 640.91 385.15 640.91Q383.98 640.91 382.63 640.91Q381.27 640.91 379.92 640.91Q378.57 640.91 377.39 640.91Q376.21 640.91 375.41 640.91Q374.60 640.91 374.37 640.91Q373.88 640.91 373.52 640.91Q373.15 640.91 372.73 640.95M381.15 640.45L381.76 640.45Q381.76 642.34 381.55 644.01Q381.34 645.70 380.60 647.02Q380.20 647.69 379.57 648.35Q378.94 649.01 378.18 649.60Q377.41 650.19 376.55 650.63L375.92 650.13Q377.24 649.54 378.33 648.66Q379.43 647.77 380.04 646.70Q380.83 645.40 380.98 643.82Q381.13 642.23 381.15 640.45M396.35 642.34L396.35 641.54Q396.61 641.56 396.94 641.58Q397.28 641.60 397.74 641.61Q398.20 641.62 398.83 641.62Q398.96 641.62 399.60 641.62Q400.24 641.62 401.20 641.62Q402.17 641.62 403.32 641.62Q404.46 641.62 405.63 641.62Q406.79 641.62 407.82 641.62Q408.85 641.62 409.57 641.62Q410.30 641.62 410.57 641.62Q411.41 641.62 411.88 641.59Q412.36 641.56 412.63 641.54L412.63 642.34Q412.36 642.31 411.84 642.29Q411.33 642.27 410.59 642.27Q410.32 642.27 409.58 642.27Q408.85 642.27 407.83 642.27Q406.81 642.27 405.65 642.27Q404.48 642.27 403.34 642.27Q402.19 642.27 401.23 642.27Q400.26 642.27 399.62 642.27Q398.98 642.27 398.83 642.27Q397.99 642.27 397.37 642.28Q396.75 642.29 396.35 642.34M431.70 635.05L432.26 634.77Q432.50 635.09 432.87 635.68Q433.25 636.27 433.63 636.91Q434.01 637.55 434.26 638.07L433.67 638.37Q433.46 637.92 433.12 637.31Q432.77 636.69 432.39 636.07Q432.01 635.45 431.70 635.05M434.30 634.06L434.85 633.79Q435.10 634.10 435.48 634.68Q435.86 635.26 436.25 635.91Q436.65 636.56 436.91 637.06L436.32 637.36Q436.11 636.92 435.75 636.30Q435.39 635.68 435.01 635.07Q434.62 634.46 434.30 634.06M423.07 635.09L423.42 634.57Q423.84 634.80 424.45 635.21Q425.06 635.62 425.72 636.07Q426.38 636.52 426.94 636.91Q427.50 637.29 427.77 637.50L427.35 638.05Q427.04 637.78 426.49 637.38Q425.94 636.98 425.30 636.54Q424.66 636.10 424.06 635.71Q423.47 635.32 423.07 635.09M421.39 650.34L421.01 649.68Q422.14 649.48 423.37 649.11Q424.60 648.74 425.79 648.24Q426.97 647.73 427.96 647.16Q429.66 646.16 431.09 644.97Q432.52 643.78 433.67 642.44Q434.83 641.10 435.69 639.65L436.11 640.26Q434.83 642.29 432.79 644.27Q430.75 646.24 428.30 647.71Q427.25 648.34 426.03 648.85Q424.81 649.35 423.61 649.73Q422.42 650.11 421.39 650.34M419.98 639.77L420.34 639.23Q420.74 639.44 421.37 639.82Q422 640.19 422.67 640.60Q423.34 641.01 423.91 641.37Q424.47 641.73 424.75 641.94L424.37 642.52Q424.03 642.27 423.48 641.89Q422.92 641.52 422.27 641.11Q421.62 640.70 421.01 640.34Q420.40 639.98 419.98 639.77"
     fill="#ffe29f"
     opacity="0.95"
     id="path-text-sub" />
  <!-- 枠線フレーム -->
  <rect
     x="20"
     y="20"
     width="560"
     height="760"
     rx="16"
     fill="none"
     stroke="url(#goldGrad)"
     stroke-width="1.5"
     opacity="0.35"
     id="rect36" />
</svg>
